<?xml version="1.0" standalone="no"?>
<!DOCTYPE svg PUBLIC "-//W3C//DTD SVG 20010904//EN"
 "http://www.w3.org/TR/2001/REC-SVG-20010904/DTD/svg10.dtd">
<svg version="1.0" xmlns="http://www.w3.org/2000/svg"
 width="1904.000000pt" height="1346.000000pt" viewBox="0 0 1904.000000 1346.000000"
 preserveAspectRatio="xMidYMid meet">

<g transform="translate(0.000000,1346.000000) scale(0.100000,-0.100000)"
fill="#000000" stroke="none">
<path d="M9273 13430 c-9 -10 -91 -14 -325 -17 -172 -1 -337 -8 -366 -14 -29
-6 -94 -9 -145 -8 -51 2 -98 -1 -105 -5 -6 -4 -27 -4 -47 0 -24 4 -35 3 -35
-6 0 -9 -10 -10 -35 -6 -21 4 -53 1 -82 -9 -78 -25 -384 -78 -438 -76 -38 1
-46 -1 -35 -10 12 -8 11 -9 -7 -4 -13 3 -36 -1 -55 -11 -44 -23 -146 -46 -171
-38 -14 4 -17 3 -12 -6 5 -9 4 -11 -4 -6 -15 9 -66 -2 -56 -12 3 -4 -22 -14
-56 -22 -59 -14 -64 -18 -88 -63 -39 -71 -77 -92 -226 -126 -203 -46 -599
-183 -639 -222 -6 -5 -18 -9 -27 -9 -10 0 -19 -4 -21 -9 -5 -15 -156 -100
-283 -161 -66 -31 -150 -79 -186 -107 -36 -28 -110 -77 -165 -108 -54 -31
-163 -98 -241 -149 -157 -101 -314 -192 -325 -188 -5 1 -8 -2 -8 -7 0 -4 -19
-21 -42 -37 -24 -16 -45 -31 -48 -34 -3 -3 -43 -33 -90 -67 -76 -55 -156 -122
-245 -208 -17 -16 -35 -31 -40 -31 -8 -2 -165 -155 -275 -270 -36 -37 -58 -64
-50 -59 9 5 12 5 7 -1 -5 -5 -12 -9 -16 -9 -4 0 -22 -12 -40 -27 -18 -16 -30
-28 -26 -28 4 0 -12 -16 -35 -35 -23 -19 -39 -35 -35 -35 3 0 -17 -23 -45 -50
-27 -28 -50 -56 -50 -62 0 -6 -3 -9 -6 -5 -4 3 -17 -8 -30 -26 -87 -119 -151
-221 -184 -294 -53 -114 -133 -223 -163 -223 -6 0 -8 -2 -5 -6 3 -3 75 15 159
39 180 52 350 94 539 133 l135 28 158 118 c178 134 420 297 607 410 141 85
385 218 399 218 16 0 112 114 107 127 -3 7 0 12 6 10 13 -2 66 63 148 184 118
173 259 264 500 321 78 19 132 21 655 28 314 4 633 13 710 19 850 70 1487 188
2370 441 386 111 626 211 856 356 23 14 37 29 33 36 -4 7 -3 8 5 4 7 -5 40 13
81 45 66 50 82 77 38 63 -13 -4 -18 -2 -14 4 8 13 -100 46 -116 36 -6 -4 -8
-3 -4 4 7 12 -48 27 -64 17 -5 -3 -10 -2 -10 3 0 6 -9 8 -20 5 -12 -3 -20 0
-20 7 0 7 -7 10 -16 6 -10 -4 -13 -2 -8 6 5 7 0 9 -14 6 -12 -4 -20 -3 -17 1
7 12 -99 33 -120 25 -12 -5 -16 -4 -12 3 8 13 -87 38 -104 27 -8 -4 -9 -3 -5
4 7 12 -22 18 -77 14 -19 -2 -26 1 -21 9 5 9 0 10 -14 7 -12 -4 -24 -2 -27 2
-3 4 -14 6 -25 3 -11 -3 -41 0 -66 6 -26 7 -88 14 -140 16 -64 3 -101 9 -119
21 -18 12 -63 18 -162 24 -129 8 -203 22 -203 39 0 4 -45 7 -101 8 -60 0 -104
4 -108 11 -10 16 -283 27 -298 12z m84 -6 c-3 -3 -12 -4 -19 -1 -8 3 -5 6 6 6
11 1 17 -2 13 -5z"/>
<path d="M11700 13131 c-73 -23 -170 -88 -348 -233 -349 -285 -733 -442 -1645
-673 -557 -140 -1032 -224 -1579 -279 -407 -41 -573 -49 -1078 -51 -505 -2
-542 -4 -666 -48 -126 -45 -187 -93 -265 -210 -34 -51 -108 -148 -165 -217
l-103 -126 -113 -58 c-349 -180 -740 -435 -1093 -712 -34 -27 -59 -35 -165
-54 -350 -63 -865 -214 -1250 -367 -1036 -412 -1832 -983 -2402 -1723 -75 -98
-210 -298 -258 -384 l-34 -59 42 6 c344 55 786 60 1049 11 l82 -15 58 43 c32
24 110 83 173 132 63 49 121 94 129 100 12 9 13 7 7 -9 -25 -61 -126 -340
-126 -346 0 -3 47 -34 104 -68 457 -270 832 -667 852 -902 31 -367 85 -664
180 -986 57 -193 137 -411 204 -558 l38 -83 7 -234 c17 -642 58 -898 145 -898
31 0 58 38 121 169 52 110 174 324 214 375 14 18 22 12 152 -124 321 -335 684
-596 1158 -832 900 -450 2094 -710 3377 -735 l316 -6 43 -134 c49 -152 30
-140 184 -118 55 8 105 15 112 15 6 0 41 -57 78 -128 415 -791 1032 -1379
1867 -1776 487 -232 1073 -394 1625 -447 68 -7 126 -10 129 -6 3 3 -23 39 -58
79 -248 285 -416 543 -483 743 -35 102 -38 212 -11 303 13 42 16 66 9 73 -10
10 -60 19 -263 44 -193 25 -419 78 -434 104 -3 5 41 45 98 90 l104 81 -132
133 c-139 139 -277 314 -430 545 -125 189 -226 362 -226 387 0 64 148 189 379
323 10 6 -11 40 -88 142 -55 74 -101 140 -101 148 0 26 69 147 118 205 147
179 484 390 872 547 114 47 446 160 467 160 76 0 -195 147 -359 194 -299 86
-701 72 -1093 -40 -390 -111 -861 -325 -1203 -546 -51 -34 -95 -58 -98 -56 -2
3 -11 31 -19 63 -17 62 -57 149 -82 177 -8 9 -30 24 -49 33 l-34 16 -83 -64
c-77 -60 -211 -153 -304 -210 -31 -20 -44 -23 -51 -14 -17 21 -74 140 -99 207
-33 86 -59 127 -93 145 -37 19 -110 19 -152 0 -31 -14 -265 -75 -287 -75 -33
0 -484 420 -469 436 3 2 38 0 79 -6 264 -34 563 8 776 110 352 168 453 363
453 878 0 418 -66 657 -230 835 -124 134 -341 294 -652 482 -54 33 -98 62 -98
65 0 3 205 4 455 2 l455 -3 0 198 c-1 415 -44 600 -175 741 -31 34 -86 81
-122 104 l-64 41 63 65 c90 91 292 272 438 391 82 67 158 120 222 153 121 61
198 130 198 175 0 41 -38 86 -91 107 -37 15 -39 18 -27 34 7 9 83 100 168 201
85 102 182 217 215 256 148 175 143 171 198 188 28 9 69 31 91 49 65 53 80
118 51 214 -14 45 -13 51 3 71 253 318 446 632 691 1123 366 735 565 1352 549
1705 -6 120 -28 176 -79 194 -36 12 -34 12 -69 2z m-28 -246 c8 -17 8 -45 1
-97 l-10 -73 1 82 c1 53 -3 86 -11 94 -11 11 -13 9 -13 -6 0 -15 -3 -16 -9 -7
-6 10 -22 1 -62 -35 -87 -78 -192 -163 -139 -113 108 102 127 119 169 149 53
37 58 38 73 6z m-42 -35 c0 -5 -2 -10 -4 -10 -3 0 -8 5 -11 10 -3 6 -1 10 4
10 6 0 11 -4 11 -10z m-190 -154 c0 -2 -8 -10 -17 -17 -16 -13 -17 -12 -4 4
13 16 21 21 21 13z m217 -18 c-3 -8 -6 -5 -6 6 -1 11 2 17 5 13 3 -3 4 -12 1
-19z m-300 -19 c-10 -6 -14 -15 -10 -22 11 -18 11 -47 -1 -54 -6 -3 -8 -3 -4
2 4 4 3 14 -3 22 -9 10 -8 13 2 13 10 0 10 3 1 12 -9 9 -8 16 5 30 9 10 19 16
22 12 3 -3 -2 -10 -12 -15z m290 -41 c-3 -8 -6 -5 -6 6 -1 11 2 17 5 13 3 -3
4 -12 1 -19z m-328 -12 c8 -10 9 -16 1 -21 -6 -4 -9 -1 -8 6 2 6 -3 14 -11 17
-9 3 -11 0 -6 -9 5 -8 5 -11 1 -7 -4 3 -40 -11 -79 -33 -40 -21 -79 -39 -87
-39 -8 0 14 14 48 30 35 17 75 39 89 50 30 24 37 24 52 6z m318 -28 c-3 -8 -6
-5 -6 6 -1 11 2 17 5 13 3 -3 4 -12 1 -19z m-13 -67 c-4 -17 -9 -30 -11 -27
-3 2 -2 19 2 36 4 17 9 30 11 27 2 -2 1 -18 -2 -36z m-524 -1 c-8 -5 -19 -10
-25 -10 -5 0 -3 5 5 10 8 5 20 10 25 10 6 0 3 -5 -5 -10z m-70 -24 c0 -7 -86
-46 -101 -46 -8 1 11 12 41 25 62 27 60 27 60 21z m577 -38 c-3 -8 -6 -5 -6 6
-1 11 2 17 5 13 3 -3 4 -12 1 -19z m-731 -35 c-2 -10 1 -36 6 -58 95 -415 57
-853 -103 -1179 -27 -54 -46 -102 -43 -107 3 -5 1 -8 -4 -7 -5 2 -34 -33 -63
-77 -139 -207 -412 -428 -660 -534 -41 -18 -99 -43 -129 -56 -153 -65 -445
-136 -697 -170 l-108 -14 -274 65 c-440 104 -805 174 -1111 211 -106 13 -217
18 -415 18 -296 -1 -394 -13 -535 -71 -358 -145 -511 -583 -399 -1139 81 -399
293 -757 510 -860 319 -150 974 -47 2134 335 414 136 396 131 578 170 147 32
252 39 245 18 -8 -25 -102 -77 -208 -117 -172 -64 -598 -183 -795 -221 -53
-11 -427 -135 -480 -160 -76 -35 -446 -164 -563 -195 -56 -16 -101 -30 -98
-32 11 -12 238 57 451 137 533 199 581 214 870 264 149 26 325 58 393 70 67
12 122 22 122 21 0 -1 -60 -56 -132 -121 -73 -65 -188 -172 -255 -237 l-122
-119 -58 22 c-180 67 -450 100 -662 81 -240 -22 -402 -73 -551 -172 -187 -125
-278 -278 -316 -532 -22 -147 -22 -446 0 -562 45 -238 138 -411 286 -532 38
-31 70 -62 70 -68 0 -6 -9 -51 -20 -100 -10 -50 -22 -120 -26 -157 l-7 -68
-148 0 -149 0 0 -212 c0 -367 32 -592 105 -744 41 -86 135 -192 230 -259 70
-51 208 -119 281 -141 44 -12 56 -22 93 -75 62 -88 152 -192 253 -291 l88 -86
-67 -11 c-54 -9 -106 -9 -248 4 -823 71 -1468 258 -1934 562 -149 97 -234 167
-356 294 -250 261 -387 556 -405 874 -4 72 -8 105 -8 75 -2 -53 -3 -56 -72
-125 l-70 -70 20 -80 c67 -281 200 -517 410 -731 353 -359 903 -620 1640 -778
237 -51 604 -103 763 -107 31 -1 57 -4 57 -6 0 -2 -72 -51 -160 -109 -89 -59
-160 -108 -158 -110 2 -1 42 8 88 22 400 117 818 194 985 181 103 -8 138 -29
147 -88 6 -39 100 -315 112 -326 5 -5 225 143 453 305 45 31 64 40 68 30 2 -7
17 -49 33 -92 l28 -79 -43 -86 c-50 -99 -79 -218 -68 -287 3 -24 10 -44 14
-44 4 0 28 29 54 64 65 88 225 251 327 332 380 302 883 486 1500 549 152 15
623 20 695 6 38 -6 38 -7 14 -14 -42 -11 -315 -134 -409 -184 -422 -225 -722
-483 -846 -726 l-25 -48 106 -112 c58 -61 105 -114 105 -117 0 -6 -354 -214
-382 -225 -10 -4 -18 -15 -18 -25 0 -48 243 -480 337 -597 14 -18 22 -33 17
-33 -5 1 -18 15 -30 33 -11 18 -26 31 -33 29 -7 -1 -10 2 -6 8 13 22 -7 31
-28 13 -22 -18 -22 -18 -4 3 32 38 17 35 -36 -9 -67 -55 -205 -122 -282 -138
-148 -30 -293 -9 -450 66 -141 68 -237 137 -360 260 -164 164 -278 315 -362
484 -74 147 -98 166 -207 159 -62 -4 -87 -12 -166 -51 -51 -26 -96 -47 -100
-47 -4 0 -10 26 -13 58 -14 126 -52 191 -105 177 -365 -93 -936 -132 -1422
-96 -366 26 -775 105 -1103 212 -106 34 -147 49 -252 89 -280 108 -552 261
-755 423 -323 259 -609 621 -816 1032 -55 111 -111 233 -123 273 -19 59 -26
70 -38 61 -7 -7 -11 -20 -8 -30 3 -9 1 -20 -4 -24 -7 -3 -8 0 -5 9 8 22 -2 20
-26 -4 -12 -12 -18 -26 -14 -32 4 -6 3 -8 -3 -5 -15 9 -77 -59 -68 -75 5 -7 5
-10 0 -6 -11 11 -36 -12 -28 -25 3 -6 1 -7 -6 -3 -15 10 -18 5 135 176 452
503 805 728 1357 866 183 46 223 60 246 88 20 24 -11 65 -112 144 -108 85
-222 153 -341 204 l-93 40 -4 56 c-11 154 -2 388 20 500 79 406 277 697 602
885 42 25 48 26 75 13 35 -16 137 -31 114 -16 -8 5 -31 10 -50 10 -19 0 -45 6
-57 13 -29 16 -85 83 -110 130 l-19 38 -46 -40 c-118 -104 -345 -386 -447
-554 -158 -262 -275 -595 -284 -807 l-2 -61 95 -32 95 -32 6 -48 c5 -45 4 -48
-15 -44 -12 3 -73 18 -136 33 -109 27 -127 29 -340 28 -197 0 -238 -3 -329
-22 -143 -31 -150 -38 -50 -46 256 -21 293 -27 357 -59 35 -17 81 -50 103 -74
33 -36 39 -49 39 -85 0 -26 -9 -57 -21 -78 -24 -40 -93 -106 -153 -147 -22
-15 -43 -31 -46 -34 -6 -8 -279 -179 -286 -179 -2 0 -21 -11 -42 -24 -20 -13
-98 -58 -172 -101 -179 -103 -242 -144 -235 -156 3 -5 0 -6 -7 -4 -40 16 -506
-383 -491 -421 3 -9 0 -12 -9 -9 -28 11 -178 -188 -210 -280 -25 -72 -24 -20
2 92 116 500 431 1041 873 1497 l95 98 -47 21 c-27 12 -77 22 -119 25 l-73 5
-52 -54 c-29 -30 -90 -108 -137 -174 -47 -67 -93 -132 -103 -145 l-18 -25 12
25 c7 14 23 39 36 57 14 18 21 37 17 44 -4 7 -3 9 4 5 6 -3 13 -2 16 3 8 13
-16 101 -26 95 -4 -3 -5 1 -2 9 3 8 -6 61 -19 118 -50 213 -73 340 -106 609
-54 429 -50 993 10 1335 46 269 88 438 156 635 37 107 137 346 154 366 5 6 6
14 2 18 -11 11 340 353 497 482 309 256 646 488 943 649 l88 47 -23 -38 c-13
-22 -73 -122 -134 -224 -62 -102 -110 -187 -108 -189 5 -5 170 171 276 295
114 134 262 324 387 497 154 213 308 313 598 386 238 60 613 76 1114 46 323
-19 547 -16 779 11 131 16 191 33 119 35 -18 0 -92 6 -164 12 l-130 12 110 14
c830 98 1568 273 2305 545 52 19 96 35 97 36 1 0 0 -8 -1 -17z m711 -45 c-3
-8 -6 -5 -6 6 -1 11 2 17 5 13 3 -3 4 -12 1 -19z m-25 -80 c-7 -7 -12 -8 -12
-2 0 14 12 26 19 19 2 -3 -1 -11 -7 -17z m-23 -97 c-16 -54 -24 -46 -9 9 6 23
14 40 16 37 3 -3 0 -24 -7 -46z m-19 -61 c0 -5 -4 -10 -10 -10 -5 0 -10 5 -10
10 0 6 5 10 10 10 6 0 10 -4 10 -10z m-30 -95 c-7 -20 -14 -35 -16 -33 -2 2 2
21 8 41 6 20 13 35 16 33 2 -3 -1 -21 -8 -41z m-54 -146 c-9 -19 -15 -29 -16
-22 0 15 22 64 27 60 2 -2 -3 -19 -11 -38z m-40 -106 c-8 -15 -15 -25 -16 -21
0 12 23 58 27 54 3 -2 -2 -17 -11 -33z m-39 -100 c-8 -15 -26 -57 -41 -93 -27
-67 -85 -189 -85 -180 -1 11 27 78 53 129 15 29 25 60 21 69 -3 9 -3 13 1 9 4
-4 18 18 32 48 14 31 27 53 29 51 3 -2 -2 -17 -10 -33z m-141 -315 c-9 -12
-16 -19 -16 -15 0 11 24 47 28 42 2 -2 -3 -14 -12 -27z m-40 -85 c-14 -26 -25
-45 -26 -41 -1 14 41 101 46 95 3 -3 -6 -27 -20 -54z m-33 2 c-3 -9 -8 -14
-10 -11 -3 3 -2 9 2 15 9 16 15 13 8 -4z m1 -51 c3 -8 2 -12 -4 -9 -6 3 -10
10 -10 16 0 14 7 11 14 -7z m-21 -60 c-10 -19 -19 -31 -21 -25 -3 9 26 61 34
61 2 0 -4 -16 -13 -36z m-42 -81 c-12 -20 -14 -14 -5 12 4 9 9 14 11 11 3 -2
0 -13 -6 -23z m-41 -74 c-7 -11 -14 -18 -17 -15 -3 3 0 12 7 21 18 21 23 19
10 -6z m-23 -46 c-2 -5 -46 -81 -96 -170 -51 -90 -94 -163 -96 -163 -2 0 -7 5
-11 12 -4 6 -3 9 2 6 5 -4 51 68 102 158 51 90 96 164 98 164 3 0 3 -3 1 -7z
m-113 -139 c3 -8 2 -12 -4 -9 -6 3 -10 10 -10 16 0 14 7 11 14 -7z m-91 -219
c-3 -9 -8 -14 -10 -11 -3 3 -2 9 2 15 9 16 15 13 8 -4z m-33 -55 c-11 -21 -30
-19 -30 3 0 8 3 8 9 -1 7 -11 9 -11 14 2 4 9 9 16 12 16 3 0 1 -9 -5 -20z
m-51 -85 c-12 -19 -26 -38 -32 -42 -11 -7 -5 6 25 50 27 38 31 34 7 -8z m-54
-73 c-3 -18 -65 -122 -72 -122 -2 0 1 9 7 19 13 26 13 34 -2 25 -7 -4 -8 -3
-4 5 4 6 12 9 17 5 11 -7 50 76 42 90 -3 5 -1 6 5 2 6 -3 9 -14 7 -24z m-2560
-27 c203 -52 743 -215 879 -265 61 -23 93 -51 102 -87 8 -31 -4 -89 -26 -134
-33 -64 -319 -519 -428 -679 -111 -164 -274 -389 -282 -390 -3 0 -15 24 -27
53 -12 28 -76 178 -143 332 -294 675 -388 908 -396 980 -11 91 26 173 90 201
47 20 121 17 231 -11z m-716 6 c12 -8 3 -41 -49 -193 -215 -628 -452 -1143
-620 -1348 l-20 -25 -38 42 c-53 58 -129 174 -173 263 -149 301 -140 601 24
848 137 205 352 361 561 407 70 15 294 19 315 6z m3179 -140 c-13 -16 -32 -34
-43 -41 -11 -7 -2 6 20 29 45 48 57 54 23 12z m-81 -3 c2 -17 0 -19 -7 -8 -5
8 -6 18 -4 22 8 12 10 10 11 -14z m-2839 -130 c214 -345 425 -799 494 -1063
38 -148 22 -283 -39 -337 -32 -29 -428 -101 -707 -129 -126 -12 -288 -8 -347
10 -81 25 -141 87 -152 159 -16 99 112 482 267 799 118 240 378 673 405 673 5
0 40 -51 79 -112z m1595 65 c-7 -2 -19 -2 -25 0 -7 3 -2 5 12 5 14 0 19 -2 13
-5z m72 -13 c-3 -5 -10 -10 -16 -10 -5 0 -9 5 -9 10 0 6 7 10 16 10 8 0 12 -4
9 -10z m1117 -6 c15 4 12 1 -7 -8 -16 -7 -46 -16 -65 -19 l-35 -6 38 12 c31
11 35 15 25 27 -11 12 -10 12 4 1 9 -7 27 -10 40 -7z m-1047 -14 c25 -11 -1
-11 -35 0 -20 6 -21 8 -5 8 11 0 29 -3 40 -8z m494 -6 c9 -8 -45 -2 -64 6 -14
7 -8 8 20 3 22 -3 42 -7 44 -9z m41 -4 c-8 -5 -19 -10 -25 -10 -5 0 -3 5 5 10
8 5 20 10 25 10 6 0 3 -5 -5 -10z m-5784 -42 c-374 -381 -638 -746 -853 -1181
-54 -110 -60 -117 -83 -112 -80 17 -349 36 -579 41 -282 7 -590 -5 -791 -31
-63 -9 -151 -20 -195 -25 -120 -15 -278 -40 -295 -47 -8 -3 -18 -6 -21 -5 -12
2 -41 -37 -35 -46 3 -5 17 -8 32 -6 14 1 23 0 20 -4 -10 -9 -46 -10 -52 0 -3
5 -15 1 -27 -9 l-21 -18 21 30 c73 105 316 349 498 500 541 449 1136 735 1815
874 194 39 445 74 576 80 l32 1 -42 -42z m5413 7 c286 -78 561 -139 696 -152
33 -3 62 -8 65 -11 12 -12 -159 10 -296 38 -146 29 -591 144 -602 155 -10 10
10 5 137 -30z m434 18 c-7 -2 -21 -2 -30 0 -10 3 -4 5 12 5 17 0 24 -2 18 -5z
m325 0 c-10 -2 -28 -2 -40 0 -13 2 -5 4 17 4 22 1 32 -1 23 -4z m-120 -10
c-26 -2 -71 -2 -100 0 -29 2 -8 3 47 3 55 0 79 -1 53 -3z m-243 -18 c22 -7 33
-13 25 -14 -8 0 -35 6 -60 13 -25 8 -36 15 -25 15 11 0 38 -6 60 -14z m102
-31 c-3 -3 -12 -4 -19 -1 -8 3 -5 6 6 6 11 1 17 -2 13 -5z m116 -34 c38 -12
66 -24 64 -26 -5 -5 -148 43 -156 53 -3 3 1 4 9 1 8 -3 46 -15 83 -28z m-96
-16 c-3 -3 -12 -4 -19 -1 -8 3 -5 6 6 6 11 1 17 -2 13 -5z m203 -25 c12 -9 12
-10 -4 -5 -10 4 -26 1 -35 -6 -14 -12 -14 -11 -2 5 16 20 21 21 41 6z m-702
-53 c93 -30 270 -80 393 -111 123 -31 225 -58 226 -59 4 -4 -187 -284 -252
-371 -77 -102 -197 -243 -224 -261 -18 -13 -21 -12 -29 3 -14 27 -237 548
-298 698 -74 183 -73 183 184 101z m639 48 c-3 -3 -12 -4 -19 -1 -8 3 -5 6 6
6 11 1 17 -2 13 -5z m123 -29 c7 -9 8 -15 2 -15 -5 0 -12 7 -16 15 -3 8 -4 15
-2 15 2 0 9 -7 16 -15z m-1064 -122 c95 -199 194 -414 231 -498 60 -135 47
-236 -40 -312 -28 -25 -47 -31 -103 -37 -97 -10 -339 -52 -471 -81 -194 -43
-263 -31 -263 48 0 37 126 268 302 554 110 178 281 443 286 443 1 0 28 -53 58
-117z m-5227 -100 c-24 -27 -49 -54 -56 -61 -7 -8 -10 -18 -7 -24 4 -6 2 -8
-3 -5 -13 8 -106 -109 -98 -123 3 -6 -1 -7 -9 -4 -9 3 -16 1 -16 -5 0 -6 5
-11 11 -11 5 0 7 -5 3 -12 -6 -9 -9 -9 -12 1 -3 9 -12 6 -30 -11 -24 -22 134
179 167 213 9 8 31 34 50 57 19 23 37 39 39 37 3 -3 -15 -26 -39 -52z m-250
-299 c-11 -14 -10 -18 6 -30 19 -14 18 -14 -5 -11 -14 3 -32 -1 -40 -7 -8 -6
-1 6 14 27 16 20 31 37 33 37 3 0 -1 -7 -8 -16z m-68 -100 c-11 -15 -21 -33
-21 -41 0 -7 -7 -16 -15 -20 -15 -5 -47 -56 -44 -70 0 -5 6 -6 13 -5 6 2 7 0
3 -5 -5 -4 -16 -8 -25 -8 -10 0 -16 -7 -16 -17 1 -10 -2 -16 -6 -13 -4 3 -17
-11 -29 -31 -23 -39 -26 -48 -12 -39 5 3 13 0 17 -6 4 -8 3 -9 -4 -5 -7 4 -12
1 -13 -6 0 -10 -2 -11 -6 0 -3 8 -17 -5 -34 -33 -16 -26 -26 -51 -23 -57 5 -7
2 -8 -6 -3 -9 6 -12 4 -8 -7 4 -8 0 -15 -7 -15 -18 0 -14 7 92 177 112 178
155 241 161 236 2 -3 -5 -17 -17 -32z m-250 -418 c-23 -25 -52 -82 -46 -88 3
-3 -1 -5 -8 -5 -10 0 -6 14 12 46 14 25 29 48 33 49 4 2 6 7 4 11 -3 4 2 8 10
8 11 0 10 -5 -5 -21z m30 1 c-10 -9 -11 -8 -5 6 3 10 9 15 12 12 3 -3 0 -11
-7 -18z m-91 -128 c0 -6 -4 -8 -8 -5 -5 3 -22 -26 -38 -64 -16 -38 -31 -67
-33 -65 -7 8 61 155 70 149 5 -3 9 -10 9 -15z m-226 -78 c-8 -19 -17 -37 -21
-40 -3 -4 -2 3 2 14 5 11 9 29 9 41 1 11 6 21 13 21 9 0 8 -10 -3 -36z m-38
-92 c-10 -20 -13 -24 -9 -9 4 14 7 33 7 42 0 10 4 14 9 9 4 -4 1 -23 -7 -42z
m-1975 -48 c-33 -38 -61 -72 -61 -75 0 -4 -12 -19 -26 -34 l-27 -27 24 35 c39
58 142 181 147 175 3 -2 -23 -35 -57 -74z m2129 4 c-29 -73 -37 -65 -9 9 12
31 24 54 27 52 2 -3 -6 -30 -18 -61z m-179 -22 c-12 -20 -14 -14 -5 12 4 9 9
14 11 11 3 -2 0 -13 -6 -23z m-1937 -31 c2 -4 -5 -9 -17 -9 -17 -2 -19 0 -7 7
18 12 18 12 24 2z m1926 -2 c0 -5 -5 -10 -11 -10 -5 0 -7 5 -4 10 3 6 8 10 11
10 2 0 4 -4 4 -10z m157 -40 c0 -21 -3 -27 -9 -18 -6 8 -8 2 -4 -17 5 -25 4
-27 -5 -12 -8 14 -8 26 1 48 7 16 13 29 15 29 1 0 2 -14 2 -30z m-196 -71
c-16 -46 -30 -78 -30 -71 -1 17 50 164 55 159 2 -2 -9 -41 -25 -88z m-2017 9
c-4 -7 -14 -21 -22 -30 -7 -9 -11 -22 -6 -29 4 -7 3 -10 -3 -6 -6 4 -22 -11
-37 -33 -14 -22 -29 -40 -32 -40 -6 0 -1 9 54 88 24 34 46 62 48 62 3 0 2 -6
-2 -12z m1111 -2 c-17 -12 -45 -12 -45 1 0 3 7 3 15 0 8 -4 17 -2 20 3 4 6 11
10 18 10 6 0 2 -6 -8 -14z m1043 -84 c-17 -51 -33 -90 -35 -88 -3 2 9 44 26
92 17 49 31 90 31 93 0 2 2 2 5 -1 3 -3 -9 -46 -27 -96z m-982 58 c-1 -17 -7
-30 -13 -30 -16 0 -16 3 -1 35 14 32 15 31 14 -5z m-136 -14 c0 -3 -4 -8 -10
-11 -5 -3 -10 -1 -10 4 0 6 5 11 10 11 6 0 10 -2 10 -4z m-60 -30 c0 -4 -59
-43 -105 -70 -30 -17 -30 -17 -6 1 14 10 41 30 60 45 33 25 51 33 51 24z m161
-23 c-12 -20 -14 -14 -5 12 4 9 9 14 11 11 3 -2 0 -13 -6 -23z m-1171 -24 c0
-6 -4 -7 -10 -4 -5 3 -10 11 -10 16 0 6 5 7 10 4 6 -3 10 -11 10 -16z m2014
-13 c-3 -14 -10 -24 -14 -21 -5 3 -3 16 3 29 15 31 20 27 11 -8z m-865 -40
c-10 -17 -19 -38 -19 -47 0 -9 -7 -30 -15 -45 -8 -16 -15 -25 -15 -21 0 18 34
113 45 127 7 8 10 22 8 30 -4 12 -3 13 5 1 7 -10 4 -23 -9 -45z m6356 34 c214
-18 370 -61 509 -140 243 -139 302 -273 313 -712 l6 -218 -401 0 -400 0 -4
213 c-3 192 -5 215 -24 247 -37 63 -133 75 -194 23 -49 -41 -65 -101 -65 -243
0 -233 36 -284 325 -460 300 -182 517 -343 625 -462 102 -112 167 -282 195
-508 5 -46 10 -172 10 -280 0 -375 -54 -548 -211 -680 -179 -149 -437 -229
-739 -230 -271 0 -488 57 -665 175 -243 161 -310 336 -322 838 l-6 237 377 1
c207 1 383 2 391 2 8 0 19 -1 24 -2 5 0 11 -129 13 -288 4 -307 8 -334 57
-378 33 -29 136 -33 178 -6 67 42 99 162 88 326 -12 179 -35 258 -93 319 -54
56 -160 134 -407 301 -390 263 -459 324 -537 472 -91 172 -127 392 -108 668
21 318 86 471 252 598 160 123 345 178 654 195 17 1 88 -3 159 -8z m-7593 -42
c-5 -7 -22 -35 -37 -62 -22 -39 -24 -50 -14 -57 10 -6 7 -8 -9 -6 -12 0 -22 3
-22 5 0 14 83 142 89 137 2 -3 -1 -10 -7 -17z m2085 -10 c-3 -8 -6 -5 -6 6 -1
11 2 17 5 13 3 -3 4 -12 1 -19z m150 -20 c-3 -8 -6 -5 -6 6 -1 11 2 17 5 13 3
-3 4 -12 1 -19z m-160 -20 c-3 -8 -6 -5 -6 6 -1 11 2 17 5 13 3 -3 4 -12 1
-19z m-1212 -13 c-11 -9 -39 -34 -63 -57 -38 -37 -81 -61 -66 -37 3 5 10 9 16
9 5 0 33 23 61 50 28 28 56 50 61 50 6 0 2 -7 -9 -15z m-95 -5 c0 -5 -4 -10
-10 -10 -5 0 -10 5 -10 10 0 6 5 10 10 10 6 0 10 -4 10 -10z m1297 -22 c-3 -8
-6 -5 -6 6 -1 11 2 17 5 13 3 -3 4 -12 1 -19z m147 -27 c-4 -17 -9 -30 -11
-27 -3 2 -2 19 2 36 9 41 17 33 9 -9z m-2115 3 c2 -2 -16 -4 -42 -4 -25 0 -48
4 -51 9 -5 8 84 3 93 -5z m294 -1 c-18 -2 -48 -2 -65 0 -18 2 -4 4 32 4 36 0
50 -2 33 -4z m1664 -15 c-3 -8 -6 -5 -6 6 -1 11 2 17 5 13 3 -3 4 -12 1 -19z
m-1564 5 c-7 -2 -21 -2 -30 0 -10 3 -4 5 12 5 17 0 24 -2 18 -5z m105 -10
c-10 -2 -26 -2 -35 0 -10 3 -2 5 17 5 19 0 27 -2 18 -5z m59 -9 c-3 -3 -12 -4
-19 -1 -8 3 -5 6 6 6 11 1 17 -2 13 -5z m550 -16 c-3 -8 -6 -5 -6 6 -1 11 2
17 5 13 3 -3 4 -12 1 -19z m-500 6 c-3 -3 -12 -4 -19 -1 -8 3 -5 6 6 6 11 1
17 -2 13 -5z m1340 -16 c-3 -8 -6 -5 -6 6 -1 11 2 17 5 13 3 -3 4 -12 1 -19z
m-873 -27 c-4 -17 -9 -30 -11 -27 -3 2 -2 19 2 36 9 41 17 33 9 -9z m1023 4
c-1 -19 -5 -35 -9 -35 -9 0 -10 16 -2 48 9 31 12 27 11 -13z m30 13 c-3 -8 -6
-5 -6 6 -1 11 2 17 5 13 3 -3 4 -12 1 -19z m-190 -30 c-3 -8 -6 -5 -6 6 -1 11
2 17 5 13 3 -3 4 -12 1 -19z m-10 -55 c-3 -10 -5 -4 -5 12 0 17 2 24 5 18 2
-7 2 -21 0 -30z m-870 5 c-3 -8 -6 -5 -6 6 -1 11 2 17 5 13 3 -3 4 -12 1 -19z
m30 0 c-3 -8 -6 -5 -6 6 -1 11 2 17 5 13 3 -3 4 -12 1 -19z m990 0 c-3 -8 -6
-5 -6 6 -1 11 2 17 5 13 3 -3 4 -12 1 -19z m-1022 -49 c-3 -3 4 -14 15 -24 17
-15 22 -16 37 -4 15 11 16 11 6 -1 -10 -11 -9 -18 5 -34 9 -12 -3 -4 -28 15
-26 22 -46 46 -48 60 -2 18 -1 21 7 9 5 -8 8 -17 6 -21z m1009 -13 c-3 -21 -8
-35 -11 -32 -2 2 -1 20 3 40 3 21 8 35 11 32 2 -2 1 -20 -3 -40z m-147 2 c-3
-7 -5 -2 -5 12 0 14 2 19 5 13 2 -7 2 -19 0 -25z m-10 -60 c-3 -7 -5 -2 -5 12
0 14 2 19 5 13 2 -7 2 -19 0 -25z m-39 -3 c-3 -3 -9 2 -12 12 -6 14 -5 15 5 6
7 -7 10 -15 7 -18z m-683 -3 c-3 -3 -11 0 -18 7 -9 10 -8 11 6 5 10 -3 15 -9
12 -12z m862 -24 c-3 -7 -5 -2 -5 12 0 14 2 19 5 13 2 -7 2 -19 0 -25z m-893
6 c3 -8 2 -12 -4 -9 -6 3 -10 10 -10 16 0 14 7 11 14 -7z m743 -26 c-3 -7 -5
-2 -5 12 0 14 2 19 5 13 2 -7 2 -19 0 -25z m-626 -75 c8 -10 -10 2 -38 26 -29
23 -53 45 -53 48 0 7 75 -54 91 -74z m766 45 c-3 -8 -6 -5 -6 6 -1 11 2 17 5
13 3 -3 4 -12 1 -19z m30 -10 c-3 -7 -5 -2 -5 12 0 14 2 19 5 13 2 -7 2 -19 0
-25z m-180 -35 c-3 -10 -5 -2 -5 17 0 19 2 27 5 18 2 -10 2 -26 0 -35z m140
-15 c-3 -8 -6 -5 -6 6 -1 11 2 17 5 13 3 -3 4 -12 1 -19z m-664 -43 c26 -16
47 -33 47 -38 0 -4 -25 9 -55 29 -30 20 -55 39 -55 41 0 6 8 2 63 -32z m514
-32 c-3 -10 -5 -4 -5 12 0 17 2 24 5 18 2 -7 2 -21 0 -30z m140 -5 c-3 -7 -5
-2 -5 12 0 14 2 19 5 13 2 -7 2 -19 0 -25z m-582 -8 c-3 -5 -1 -10 6 -10 7 0
10 -3 6 -6 -9 -9 -28 6 -22 17 4 5 8 9 11 9 3 0 2 -4 -1 -10z m5915 -21 c-12
-16 -24 -28 -27 -25 -7 6 27 56 39 56 5 0 0 -14 -12 -31z m-5483 -51 c-2 -13
-4 -5 -4 17 -1 22 1 32 4 23 2 -10 2 -28 0 -40z m-366 21 c19 -16 20 -18 4
-10 -34 17 -51 31 -39 31 7 0 22 -9 35 -21z m506 -41 c-2 -13 -4 -5 -4 17 -1
22 1 32 4 23 2 -10 2 -28 0 -40z m-416 -3 c19 -8 27 -14 19 -14 -14 0 -72 28
-59 29 4 0 22 -7 40 -15z m5850 -368 c-6 -15 -83 66 -102 108 -30 65 -25 89
39 178 l57 80 5 -179 c3 -99 3 -183 1 -187z m-5581 323 c0 -16 -4 -30 -8 -30
-5 0 -7 14 -4 30 2 17 6 30 8 30 2 0 4 -13 4 -30z m-168 3 c7 -6 30 -16 51
-23 21 -6 37 -14 34 -16 -7 -7 -97 28 -97 38 0 5 -4 6 -10 3 -5 -3 -18 -2 -27
4 -15 8 -13 9 9 7 15 -1 33 -7 40 -13z m305 -100 c-2 -21 -4 -4 -4 37 0 41 2
58 4 38 2 -21 2 -55 0 -75z m-137 45 c0 -10 -17 -9 -50 2 -21 7 -20 8 12 7 21
-1 38 -5 38 -9z m127 -315 c-2 -37 -3 -9 -3 62 0 72 1 102 3 68 2 -34 2 -93 0
-130z m10 -205 c-2 -18 -4 -6 -4 27 0 33 2 48 4 33 2 -15 2 -42 0 -60z m10
-110 c-2 -13 -4 -5 -4 17 -1 22 1 32 4 23 2 -10 2 -28 0 -40z m1956 -35 c-7
-2 -21 -2 -30 0 -10 3 -4 5 12 5 17 0 24 -2 18 -5z m-1946 -55 c-2 -13 -4 -5
-4 17 -1 22 1 32 4 23 2 -10 2 -28 0 -40z m2106 35 c-7 -2 -21 -2 -30 0 -10 3
-4 5 12 5 17 0 24 -2 18 -5z m70 -10 c-7 -2 -19 -2 -25 0 -7 3 -2 5 12 5 14 0
19 -2 13 -5z m60 -10 c-7 -2 -21 -2 -30 0 -10 3 -4 5 12 5 17 0 24 -2 18 -5z
m50 -10 c-7 -2 -19 -2 -25 0 -7 3 -2 5 12 5 14 0 19 -2 13 -5z m132 -24 l20
-8 -20 0 c-11 0 -38 7 -60 14 l-40 14 40 -6 c22 -3 49 -9 60 -14z m131 -40
c68 -26 124 -73 124 -104 0 -30 -37 -74 -87 -102 -31 -17 -40 -19 -40 -8 0 8
4 12 9 9 11 -7 68 28 66 41 -2 5 0 10 3 10 14 0 39 29 39 46 0 23 -28 51 -42
43 -6 -4 -8 -2 -5 3 4 6 -3 17 -16 25 -32 20 -115 50 -124 45 -5 -3 -14 2 -22
11 -13 13 -12 14 13 8 15 -4 52 -16 82 -27z m-2539 -11 c-3 -8 -6 -5 -6 6 -1
11 2 17 5 13 3 -3 4 -12 1 -19z m40 0 c-3 -8 -6 -5 -6 6 -1 11 2 17 5 13 3 -3
4 -12 1 -19z m-30 -90 c-3 -7 -5 -2 -5 12 0 14 2 19 5 13 2 -7 2 -19 0 -25z
m806 8 c-10 -13 -20 -22 -22 -20 -4 4 29 44 36 44 2 0 -4 -11 -14 -24z m-783
-46 c5 8 7 -2 5 -24 -4 -43 -15 -61 -15 -25 0 13 -2 33 -4 44 -2 11 -1 14 1 6
4 -11 7 -11 13 -1z m760 -41 c-7 -11 -14 -18 -17 -15 -3 3 0 12 7 21 18 21 23
19 10 -6z m-742 -114 c0 -16 -2 -15 -8 5 -4 14 -8 34 -8 45 0 16 2 15 8 -5 4
-14 8 -34 8 -45z m696 35 c-10 -16 -20 -28 -22 -26 -4 5 28 56 35 56 2 0 -4
-13 -13 -30z m1766 26 c0 -2 -13 -9 -30 -15 -35 -12 -41 -5 -7 9 25 10 37 12
37 6z m2658 -256 c4 -12 -405 -14 -412 -2 -5 8 19 121 43 209 l12 42 177 -120
c97 -66 179 -124 180 -129z m-2752 211 c-3 -5 -16 -11 -28 -14 -22 -6 -22 -5
-4 8 22 17 40 20 32 6z m-1714 -51 c-9 -16 -18 -28 -19 -26 -6 6 22 64 28 60
4 -2 0 -18 -9 -34z m1637 16 c-2 -2 -44 -25 -94 -51 -49 -26 -101 -56 -115
-65 -34 -23 -70 -42 -70 -36 0 10 256 155 274 156 5 0 7 -2 5 -4z m-2282 -28
c-3 -8 -6 -5 -6 6 -1 11 2 17 5 13 3 -3 4 -12 1 -19z m2188 2 c-3 -5 -12 -10
-18 -10 -7 0 -6 4 3 10 19 12 23 12 15 0z m-2178 -52 c-3 -7 -5 -2 -5 12 0 14
2 19 5 13 2 -7 2 -19 0 -25z m588 -27 c-18 -35 -21 -37 -29 -15 -3 9 -2 12 5
9 5 -4 15 7 22 25 6 17 13 26 15 21 2 -5 -4 -23 -13 -40z m-567 -46 c0 -16 -2
-15 -8 5 -11 34 -11 60 0 35 5 -11 8 -29 8 -40z m2007 45 c-3 -5 -12 -10 -18
-10 -7 0 -6 4 3 10 19 12 23 12 15 0z m-1539 -190 c-74 -153 -107 -210 -62
-108 36 81 125 258 130 258 3 0 -28 -68 -68 -150z m-455 109 c-5 -13 -10 -19
-10 -12 -1 15 10 45 15 40 3 -2 0 -15 -5 -28z m1944 22 c-6 -4 -46 -32 -90
-61 -77 -51 -212 -150 -265 -194 -14 -12 -8 -3 14 19 23 22 40 44 38 48 -1 5
2 6 8 2 5 -3 38 15 73 41 34 26 79 60 99 76 20 15 40 28 45 28 4 0 21 11 37
25 26 23 64 38 41 16z m-1923 -60 c6 10 7 7 3 -9 -4 -12 1 -47 10 -78 9 -31
14 -58 12 -60 -4 -4 -48 139 -46 153 0 4 3 2 6 -6 5 -11 7 -11 15 0z m1718
-25 c0 -2 -7 -7 -16 -10 -8 -3 -12 -2 -9 4 6 10 25 14 25 6z m3564 -107 c31
-37 43 -78 57 -199 18 -153 0 -288 -41 -310 -10 -6 -35 -10 -54 -10 -59 0 -61
10 -64 329 l-3 284 40 -32 c22 -18 51 -45 65 -62z m-3639 23 c-3 -3 -11 0 -18
7 -9 10 -8 11 6 5 10 -3 15 -9 12 -12z m-1590 -103 c10 -46 -1 -46 -13 1 -5
22 -6 38 -2 35 5 -3 11 -19 15 -36z m1475 -13 c0 -2 -21 -21 -47 -42 l-48 -37
40 41 c34 37 55 51 55 38z m-1210 -87 c-17 -35 -28 -53 -24 -39 7 30 46 111
51 106 2 -1 -10 -32 -27 -67z m-236 1 c5 -17 4 -20 -2 -10 -5 8 -13 26 -16 40
-5 17 -4 20 2 10 5 -8 13 -26 16 -40z m1345 -2 c-2 -2 -28 -25 -57 -53 -28
-27 -52 -46 -52 -42 0 10 104 107 109 101 2 -2 2 -5 0 -6z m-1326 -40 c-3 -15
-2 -19 4 -11 6 9 9 0 10 -24 l1 -38 -14 35 c-8 18 -12 40 -10 47 9 21 15 15 9
-9z m176 -18 c11 -24 11 -24 -3 -6 -9 11 -16 24 -16 30 0 12 5 7 19 -24z
m1020 -57 c-20 -27 -49 -55 -49 -47 0 6 53 64 59 64 2 0 -3 -8 -10 -17z
m-1038 -20 c-12 -20 -14 -14 -5 12 4 9 9 14 11 11 3 -2 0 -13 -6 -23z m-121
-18 c0 -5 -5 -3 -10 5 -5 8 -10 20 -10 25 0 6 5 3 10 -5 5 -8 10 -19 10 -25z
m91 -52 c-11 -21 -20 -35 -21 -31 0 12 33 78 38 74 2 -2 -6 -21 -17 -43z m-74
31 c-3 -3 5 -31 19 -62 13 -30 22 -57 20 -59 -2 -3 -13 16 -24 40 -31 69 -35
87 -21 87 7 0 10 -3 6 -6z m1083 3 c0 -2 -10 -12 -22 -23 l-23 -19 19 23 c18
21 26 27 26 19z m-77 -85 c-21 -21 -60 -61 -87 -90 -26 -30 -50 -52 -51 -50
-6 5 157 178 168 178 5 0 -9 -17 -30 -38z m-93 -66 c0 -2 -8 -10 -17 -17 -16
-13 -17 -12 -4 4 13 16 21 21 21 13z m-72 -113 c-13 -16 -33 -39 -45 -53 -12
-14 -30 -36 -40 -48 -18 -23 -19 -23 -19 -4 0 11 3 19 6 17 4 -2 30 23 59 56
29 32 55 59 57 59 3 0 -5 -12 -18 -27z m102 -86 c0 -2 -10 -12 -22 -23 l-23
-19 19 23 c18 21 26 27 26 19z m-273 -124 c-34 -43 -73 -91 -85 -108 -13 -16
-20 -23 -16 -15 19 38 149 200 161 200 1 0 -25 -35 -60 -77z m211 48 c-13 -17
-27 -30 -32 -30 -6 -1 3 13 19 29 37 38 43 39 13 1z m-47 -58 c-5 -10 -21 -29
-35 -42 -14 -13 -23 -28 -19 -34 3 -6 1 -7 -6 -3 -13 9 -8 18 38 69 29 31 36
34 22 10z m-221 -26 c0 -8 -3 -8 -9 2 -11 17 -25 -3 -15 -21 5 -10 4 -10 -6
-1 -11 10 -11 15 0 27 13 17 30 13 30 -7z m-533 -54 c-3 -10 -5 -4 -5 12 0 17
2 24 5 18 2 -7 2 -21 0 -30z m731 -8 c-3 -3 -9 2 -12 12 -6 14 -5 15 5 6 7 -7
10 -15 7 -18z m-48 1 c0 -3 -6 -11 -13 -18 -7 -7 -26 -31 -42 -53 -17 -22 -43
-53 -59 -70 -16 -16 -7 -1 19 35 64 87 95 121 95 106z m-693 -98 c-2 -13 -4
-3 -4 22 0 25 2 35 4 23 2 -13 2 -33 0 -45z m441 -23 c-37 -54 -55 -72 -63
-65 -7 5 -14 8 -17 5 -2 -3 -5 1 -5 8 0 8 6 14 13 14 7 0 13 -3 12 -6 -2 -23
6 -18 31 20 16 24 27 47 24 53 -3 5 -2 6 4 3 5 -4 16 5 23 18 7 14 17 25 21
25 5 0 -15 -34 -43 -75z m-451 -217 c-1 -40 -3 -10 -3 67 0 77 1 110 3 73 2
-37 2 -100 0 -140z m583 152 c0 8 2 11 5 8 8 -8 -16 -58 -28 -58 -5 0 -4 7 3
15 9 11 10 19 3 26 -7 7 -16 1 -29 -18 -10 -15 -17 -32 -16 -36 1 -5 -2 -6 -8
-2 -6 4 0 20 16 41 21 27 30 32 40 23 11 -9 14 -8 14 1z m-220 -65 c-17 -25
-33 -45 -36 -45 -7 0 3 17 34 58 36 48 38 39 2 -13z m185 -57 c6 -17 18 -22
38 -19 5 1 6 -3 2 -9 -9 -14 52 -73 66 -64 7 4 9 3 5 -4 -3 -6 0 -17 8 -24 8
-7 52 -48 98 -91 45 -42 88 -75 95 -73 7 3 10 -1 6 -11 -5 -12 -1 -14 18 -8
17 4 20 3 10 -3 -11 -8 -8 -13 14 -24 15 -8 24 -18 19 -21 -11 -6 -93 63 -257
216 -113 106 -207 210 -155 172 15 -11 30 -28 33 -37z m-235 -18 c-6 -11 -12
-20 -14 -20 -2 0 -2 9 1 20 3 11 9 20 15 20 5 0 4 -9 -2 -20z m350 -10 c0 -5
-4 -10 -10 -10 -5 0 -10 5 -10 10 0 6 5 10 10 10 6 0 10 -4 10 -10z m-380 -40
c-6 -11 -16 -20 -22 -20 -6 0 -3 9 7 20 10 11 20 20 22 20 2 0 -1 -9 -7 -20z
m-270 -75 c-7 -45 -7 -46 -9 -13 -1 32 8 74 14 66 1 -2 -1 -25 -5 -53z m218
30 c-3 -3 -9 2 -12 12 -6 14 -5 15 5 6 7 -7 10 -15 7 -18z m3 -37 c-16 -28
-39 -63 -50 -77 -11 -14 0 9 25 52 25 42 48 77 50 77 2 0 -9 -23 -25 -52z
m-214 -100 c-3 -7 -5 -2 -5 12 0 14 2 19 5 13 2 -7 2 -19 0 -25z m858 -9 c4
-6 14 -8 24 -4 12 5 13 3 4 -6 -9 -9 -17 -8 -34 5 -13 9 -18 16 -12 16 7 0 15
-5 18 -11z m-722 -30 c-10 -17 -26 -38 -37 -47 -10 -9 -4 4 13 31 36 52 52 64
24 16z m-126 -26 c-3 -10 -5 -2 -5 17 0 19 2 27 5 18 2 -10 2 -26 0 -35z m20
-37 c-3 -8 -2 -17 4 -20 5 -2 4 -3 -3 -2 -17 3 -23 36 -8 36 7 0 10 -6 7 -14z
m898 -5 c-6 -11 28 -33 39 -26 3 3 4 2 1 -2 -3 -3 1 -13 8 -22 11 -14 10 -15
-8 -1 -42 30 -54 43 -49 51 3 5 7 9 10 9 3 0 3 -4 -1 -9z m-845 -5 c0 -2 -7
-7 -16 -10 -8 -3 -12 -2 -9 4 6 10 25 14 25 6z m959 -72 c-6 -8 -8 -14 -3 -14
5 -1 27 -17 49 -37 l40 -35 -55 37 c-30 21 -62 45 -70 54 -13 13 -13 14 2 2
19 -14 42 -6 32 11 -4 7 -2 8 5 4 9 -6 9 -11 0 -22z m61 -24 c0 -5 -2 -10 -4
-10 -3 0 -8 5 -11 10 -3 6 -1 10 4 10 6 0 11 -4 11 -10z m101 -57 c13 -16 12
-17 -3 -4 -17 13 -22 21 -14 21 2 0 10 -8 17 -17z m7 -57 c9 -11 -4 -5 -30 13
-27 17 -48 34 -48 37 0 9 61 -30 78 -50z m87 -24 c-3 -3 -11 0 -18 7 -9 10 -8
11 6 5 10 -3 15 -9 12 -12z m-3 -22 c7 -1 31 -17 53 -36 l40 -36 -40 26 c-22
14 -55 33 -73 42 -18 9 -35 22 -39 28 -4 6 5 3 20 -6 14 -10 32 -18 39 -18z
m58 0 c8 -5 11 -10 5 -10 -5 0 -17 5 -25 10 -8 5 -10 10 -5 10 6 0 17 -5 25
-10z m96 -84 c0 -24 -1 -24 -29 -9 -16 8 -26 17 -23 21 4 3 12 0 18 -6 13 -13
29 -16 27 -4 -2 10 0 22 4 22 2 0 3 -11 3 -24z m68 -52 c25 -14 46 -28 46 -30
0 -5 -64 28 -90 45 -29 20 -2 11 44 -15z m122 -65 c19 -11 39 -17 46 -13 10 5
10 4 1 -6 -9 -10 -20 -7 -55 14 -23 14 -39 26 -34 26 5 0 24 -9 42 -21z m200
-106 c-6 -6 -36 9 -36 18 0 5 9 4 20 -3 10 -7 18 -14 16 -15z m54 -18 c14 -8
21 -14 15 -14 -5 0 -21 6 -35 14 -14 8 -20 14 -15 14 6 0 21 -6 35 -14z m108
-45 c3 0 3 -2 0 -5 -5 -6 -78 22 -78 30 0 3 16 -2 36 -10 20 -8 39 -15 42 -15z
m57 -24 c19 -8 35 -18 35 -21 0 -5 -70 21 -79 30 -8 9 10 5 44 -9z m130 -64
c-3 -3 -11 0 -18 7 -9 10 -8 11 6 5 10 -3 15 -9 12 -12z m130 -2 c13 -5 14 -9
5 -9 -8 0 -24 4 -35 9 -13 5 -14 9 -5 9 8 0 24 -4 35 -9z m-88 -6 c-3 -3 -12
-4 -19 -1 -8 3 -5 6 6 6 11 1 17 -2 13 -5z m83 -30 l25 -15 -25 7 c-14 3 -32
10 -40 15 -13 7 -13 8 0 8 8 0 26 -6 40 -15z m94 -35 c5 -5 -5 -4 -24 1 -18 5
-35 12 -39 16 -9 9 53 -7 63 -17z m66 -19 c0 -5 -7 -7 -15 -4 -8 4 -15 8 -15
10 0 2 7 4 15 4 8 0 15 -4 15 -10z m75 -25 c39 -17 21 -18 -25 0 -19 7 -28 14
-20 14 8 0 29 -6 45 -14z m139 -41 c26 -9 45 -18 43 -20 -2 -2 -28 5 -58 15
-30 11 -49 20 -43 20 6 1 32 -6 58 -15z m182 -49 c30 -16 25 -19 -13 -9 -13 4
-23 10 -23 15 0 12 3 11 36 -6z m74 -21 c0 -2 -7 -4 -15 -4 -8 0 -15 4 -15 10
0 5 7 7 15 4 8 -4 15 -8 15 -10z m67 -20 c-3 -3 -12 -4 -19 -1 -8 3 -5 6 6 6
11 1 17 -2 13 -5z m40 -10 c-3 -3 -12 -4 -19 -1 -8 3 -5 6 6 6 11 1 17 -2 13
-5z m93 -14 c-8 -5 -19 -10 -25 -10 -5 0 -3 5 5 10 8 5 20 10 25 10 6 0 3 -5
-5 -10z m47 -16 c-3 -3 -12 -4 -19 -1 -8 3 -5 6 6 6 11 1 17 -2 13 -5z m46
-11 c-7 -2 -19 -2 -25 0 -7 3 -2 5 12 5 14 0 19 -2 13 -5z m116 -19 c8 -7 -54
-2 -79 6 -17 6 -9 7 25 3 28 -3 52 -7 54 -9z m38 -10 c-3 -3 -12 -4 -19 -1 -8
3 -5 6 6 6 11 1 17 -2 13 -5z m56 -11 c-7 -2 -21 -2 -30 0 -10 3 -4 5 12 5 17
0 24 -2 18 -5z m50 -10 c-7 -2 -19 -2 -25 0 -7 3 -2 5 12 5 14 0 19 -2 13 -5z
m102 -13 c13 -6 5 -7 -25 -3 -25 3 -47 7 -49 9 -9 8 55 2 74 -6z m88 -17 c-7
-2 -19 -2 -25 0 -7 3 -2 5 12 5 14 0 19 -2 13 -5z m75 -10 c-10 -2 -26 -2 -35
0 -10 3 -2 5 17 5 19 0 27 -2 18 -5z m63 -11 c-7 -2 -18 1 -23 6 -8 8 -4 9 13
5 13 -4 18 -8 10 -11z m239 -22 c22 -5 8 -6 -40 -3 -41 3 -91 9 -110 13 -22 5
-8 6 40 3 41 -3 91 -9 110 -13z m143 -17 c-13 -2 -35 -2 -50 0 -16 2 -5 4 22
4 28 0 40 -2 28 -4z m125 -10 c-16 -2 -40 -2 -55 0 -16 2 -3 4 27 4 30 0 43
-2 28 -4z m160 -10 c-21 -2 -55 -2 -75 0 -21 2 -4 4 37 4 41 0 58 -2 38 -4z
m275 -10 c-29 -2 -78 -2 -110 0 -32 2 -8 3 52 3 61 0 87 -1 58 -3z m670 0
c-13 -2 -33 -2 -45 0 -13 2 -3 4 22 4 25 0 35 -2 23 -4z m60 0 c-7 -2 -19 -2
-25 0 -7 3 -2 5 12 5 14 0 19 -2 13 -5z m-300 -10 c-68 -2 -178 -2 -245 0 -68
1 -13 3 122 3 135 0 190 -2 123 -3z m324 -15 c-3 -8 -6 -5 -6 6 -1 11 2 17 5
13 3 -3 4 -12 1 -19z m31 -113 c0 -11 -6 3 -14 30 -7 28 -13 55 -13 60 2 17
27 -69 27 -90z m20 -80 c0 -16 -2 -15 -8 5 -11 34 -11 60 0 35 5 -11 8 -29 8
-40z m252 30 c-35 -43 -210 -157 -210 -138 0 8 32 28 90 59 14 8 48 32 75 54
54 43 65 49 45 25z m45 -31 c2 -10 9 -37 14 -59 15 -60 5 -54 -13 9 -9 30 -19
63 -23 73 -4 13 -3 15 6 7 6 -6 13 -19 16 -30z m-271 -83 c2 -17 0 -31 -5 -31
-5 0 -8 10 -8 23 0 12 -2 33 -6 47 -5 20 -4 22 4 8 6 -9 13 -30 15 -47z m323
-72 c0 -21 -3 -26 -9 -16 -4 9 -5 22 -2 31 9 23 11 20 11 -15z m46 -90 c12 0
16 -3 10 -6 -18 -7 -16 -19 12 -76 14 -27 24 -55 22 -60 -2 -6 -16 21 -32 59
-16 38 -32 73 -37 79 -4 5 -8 14 -7 20 0 5 3 4 6 -2 2 -7 14 -13 26 -14z m87
-209 c7 -16 16 -27 21 -24 5 3 6 -3 2 -12 -4 -12 -3 -15 5 -10 8 5 10 2 6 -8
-3 -9 -8 -16 -10 -16 -2 0 -16 27 -33 60 -16 34 -23 56 -16 50 7 -6 18 -24 25
-40z m67 -125 c0 -22 -5 -19 -23 18 -17 32 -17 32 3 14 11 -9 20 -24 20 -32z
m1706 -75 c37 -47 81 -103 99 -125 18 -22 26 -35 18 -28 -8 6 -19 13 -25 15
-5 1 -9 7 -7 12 1 4 -3 13 -11 20 -7 6 -38 43 -68 81 -29 39 -62 79 -71 89
-10 11 -18 24 -18 30 0 12 -1 13 83 -94z m-1667 68 c0 -10 -1 -18 -3 -18 -1 0
-7 8 -12 18 -7 13 -6 19 2 19 7 0 13 -9 13 -19z m1582 -23 c-3 -3 -9 2 -12 12
-6 14 -5 15 5 6 7 -7 10 -15 7 -18z m-1541 -102 c20 -34 40 -60 45 -57 4 3 8
3 8 0 0 -3 -4 -7 -9 -10 -8 -5 -40 40 -105 149 l-18 30 21 -25 c12 -14 38 -53
58 -87z m78 -95 c5 4 5 1 1 -6 -6 -10 -11 -10 -22 -1 -8 6 -14 14 -14 16 0 3
6 0 13 -6 8 -6 18 -7 22 -3z m30 -7 c3 -5 2 -12 -3 -15 -5 -3 -9 1 -9 9 0 17
3 19 12 6z m1690 -51 l30 -35 -32 29 c-18 17 -33 34 -33 40 0 5 1 7 3 5 1 -2
16 -20 32 -39z m-1686 23 c14 10 14 10 3 -5 -12 -14 -10 -21 9 -47 13 -17 26
-31 31 -31 4 0 8 -5 8 -11 0 -17 -21 3 -60 58 -18 26 -27 42 -20 36 11 -10 17
-10 29 0z m1751 -98 c19 -19 30 -35 24 -35 -5 0 -22 16 -37 35 -36 45 -30 45
13 0z m-1650 -61 c19 -24 40 -50 45 -57 32 -40 32 -46 0 -12 -54 59 -98 115
-88 114 4 0 24 -20 43 -45z m1715 -14 c16 -16 24 -30 19 -30 -6 0 -20 14 -32
30 -13 17 -21 30 -19 30 2 0 16 -13 32 -30z m-15 -30 c0 -5 -5 -10 -11 -10 -5
0 -7 5 -4 10 3 6 8 10 11 10 2 0 4 -4 4 -10z m-426 -8 c3 -5 -1 -9 -9 -9 -8 0
-12 4 -9 9 3 4 7 8 9 8 2 0 6 -4 9 -8z m-24 -27 c13 -14 21 -25 18 -25 -2 0
-15 11 -28 25 -13 14 -21 25 -18 25 2 0 15 -11 28 -25z m405 15 c-11 -5 -27
-9 -35 -9 -13 -1 -13 0 0 9 8 5 24 9 35 9 l20 0 -20 -9z m-315 -155 c0 -5 -21
13 -47 41 -28 29 -54 49 -63 47 -13 -4 -13 -3 0 6 14 10 13 12 -10 15 -5 0
-10 4 -10 9 0 4 0 11 0 16 0 5 29 -21 65 -58 36 -37 65 -72 65 -76z m147 139
c-3 -3 -12 -4 -19 -1 -8 3 -5 6 6 6 11 1 17 -2 13 -5z m98 -4 c-11 -5 -27 -9
-35 -9 -9 0 -8 4 5 9 11 5 27 9 35 9 9 0 8 -4 -5 -9z m-95 -26 c-56 -17 -64
-17 -25 1 17 8 39 14 50 14 11 0 0 -7 -25 -15z m-158 -19 c17 -3 33 -7 37 -11
3 -4 -7 -4 -22 0 -20 5 -27 3 -22 -5 4 -6 -4 -3 -19 6 -24 16 -39 34 -16 20 6
-4 25 -8 42 -10z m-1045 -161 c13 6 14 4 3 -9 -12 -14 -23 -7 -92 62 -44 43
-84 87 -90 98 -5 11 29 -20 76 -68 61 -62 92 -87 103 -83z m1126 159 c-7 -2
-19 -2 -25 0 -7 3 -2 5 12 5 14 0 19 -2 13 -5z m-183 -53 c0 -5 -2 -10 -4 -10
-3 0 -8 5 -11 10 -3 6 -1 10 4 10 6 0 11 -4 11 -10z m-1003 -35 c0 -8 -4 -12
-9 -9 -5 3 -6 10 -3 15 9 13 12 11 12 -6z m1243 -98 c59 -39 201 -107 258
-122 12 -4 22 -11 22 -16 0 -11 -13 -12 -25 0 -6 4 -44 21 -85 37 -41 15 -87
36 -102 46 -14 10 -30 18 -35 18 -4 0 -35 20 -67 45 -33 24 -62 42 -66 40 -4
-2 -7 2 -7 11 0 12 3 12 21 -1 12 -9 50 -35 86 -58z m-1156 -12 c-4 -8 -11
-12 -17 -8 -8 5 -7 8 1 11 7 2 9 9 6 14 -4 7 -2 8 4 4 6 -4 9 -13 6 -21z
m1131 -4 c3 -5 0 -13 -6 -17 -7 -4 -9 -3 -5 4 3 5 0 13 -6 15 -9 4 -10 6 -1 6
6 1 14 -3 18 -8z m-48 -7 c-3 -3 -12 -4 -19 -1 -8 3 -5 6 6 6 11 1 17 -2 13
-5z m-955 -106 c9 -10 23 -16 30 -14 7 1 9 1 5 -2 -4 -2 -2 -11 5 -20 16 -20
-52 33 -107 83 l-40 36 44 -33 c25 -18 53 -41 63 -50z m1353 -18 c13 -6 15 -9
5 -9 -8 0 -22 4 -30 9 -18 12 -2 12 25 0z m52 -16 c-3 -3 -12 -4 -19 -1 -8 3
-5 6 6 6 11 1 17 -2 13 -5z m72 -20 c11 -11 -7 -10 -34 3 l-30 14 30 -6 c16
-4 32 -9 34 -11z m-1369 -19 c6 3 9 1 8 -7 -2 -7 3 -12 10 -10 8 1 11 -2 6 -9
-5 -9 -2 -10 10 -6 10 4 15 3 11 -3 -9 -15 87 -80 110 -74 14 4 16 2 7 -4 -9
-6 8 -22 63 -57 41 -26 78 -52 81 -57 10 -15 -19 2 -152 94 -164 112 -203 141
-204 152 0 5 9 1 19 -8 11 -10 25 -15 31 -11z m1417 9 c-3 -3 -12 -4 -19 -1
-8 3 -5 6 6 6 11 1 17 -2 13 -5z m40 -10 c-3 -3 -12 -4 -19 -1 -8 3 -5 6 6 6
11 1 17 -2 13 -5z m98 -14 c42 -11 1 -11 -50 -1 -34 7 -35 9 -10 9 17 0 44 -4
60 -8z m78 -17 c-7 -2 -19 -2 -25 0 -7 3 -2 5 12 5 14 0 19 -2 13 -5z m77 -23
c0 -22 -5 -23 -35 -9 -18 9 -18 9 3 5 17 -3 22 -1 18 10 -3 8 -1 14 4 14 6 0
10 -9 10 -20z m7 -72 c-3 -8 -6 -5 -6 6 -1 11 2 17 5 13 3 -3 4 -12 1 -19z
m13 -34 c0 -8 -5 -12 -10 -9 -6 4 -8 11 -5 16 9 14 15 11 15 -7z m-19 -51
c-12 -20 -14 -14 -5 12 4 9 9 14 11 11 3 -2 0 -13 -6 -23z m55 -60 c13 -35 21
-63 19 -63 -7 0 -45 92 -45 108 0 13 -3 12 -15 -4 -13 -17 -13 -16 -2 14 6 18
14 27 16 20 2 -7 14 -41 27 -75z m-1345 -21 c-10 -3 -101 46 -101 54 0 2 25
-8 56 -23 30 -15 50 -29 45 -31z m60 -33 l24 -20 -30 17 c-39 24 -40 24 -28
24 6 0 21 -9 34 -21z m109 -54 c40 -20 77 -32 87 -29 15 5 16 4 3 -5 -12 -9
-13 -11 -1 -11 8 0 12 -3 9 -6 -3 -3 -46 15 -94 40 -49 25 -86 45 -81 45 4 1
39 -15 77 -34z m1240 -32 c0 -22 -8 -14 -19 20 -10 29 -9 30 4 13 8 -11 15
-26 15 -33z m-1104 -22 c-3 -5 6 -12 20 -15 15 -4 24 -9 22 -12 -3 -2 -19 1
-37 7 -24 9 -29 14 -19 20 17 11 20 11 14 0z m1145 -46 c7 -13 3 -12 -10 5
-11 14 -21 30 -21 35 0 11 14 -7 31 -40z m-1041 -10 c33 -19 21 -19 -21 0 -19
8 -27 14 -19 14 8 0 26 -6 40 -14z m84 -30 c25 -19 17 -19 -25 0 -24 10 -28
14 -14 14 11 0 29 -6 39 -14z m1030 -55 c31 -38 52 -70 48 -70 -10 1 -120 140
-109 140 2 0 30 -31 61 -70z m-894 0 c8 -5 11 -10 5 -10 -5 0 -17 5 -25 10 -8
5 -10 10 -5 10 6 0 17 -5 25 -10z m96 -31 c36 -12 63 -23 61 -25 -4 -4 -128
34 -136 42 -9 8 11 4 75 -17z m104 -29 c0 -5 -5 -10 -11 -10 -5 0 -7 5 -4 10
3 6 8 10 11 10 2 0 4 -4 4 -10z m115 -36 c38 -13 38 -13 5 -7 -19 3 -53 12
-75 19 -38 13 -38 13 -5 7 19 -3 53 -12 75 -19z m664 -24 c11 -24 11 -24 -3
-6 -9 11 -16 24 -16 30 0 12 5 7 19 -24z m-534 -9 c20 -6 23 -9 10 -9 -11 0
-38 6 -60 13 -33 11 -34 13 -10 10 17 -2 44 -8 60 -14z m135 -31 c20 -6 21 -8
5 -8 -11 0 -31 4 -45 8 -20 6 -21 8 -5 8 11 0 31 -4 45 -8z m105 -20 c3 -5 1
-10 -4 -10 -6 0 -11 5 -11 10 0 6 2 10 4 10 3 0 8 -4 11 -10z m309 -47 c-10
-7 -40 -12 -68 -11 -46 1 -47 2 -11 5 74 6 85 11 86 41 2 26 2 26 6 3 3 -16
-1 -29 -13 -38z m-234 37 c-8 -5 -22 -9 -30 -9 -10 0 -8 3 5 9 27 12 43 12 25
0z m57 -26 c-3 -3 -12 -4 -19 -1 -8 3 -5 6 6 6 11 1 17 -2 13 -5z m46 -11 c-7
-2 -19 -2 -25 0 -7 3 -2 5 12 5 14 0 19 -2 13 -5z"/>
<path d="M6856 11519 c-132 -18 -349 -102 -531 -205 -98 -57 -295 -187 -295
-196 0 -14 234 -75 405 -105 140 -24 437 -24 558 0 99 20 236 66 317 107 117
59 309 225 286 247 -3 3 -45 16 -93 29 -49 12 -127 38 -175 58 -48 19 -113 42
-145 50 -76 20 -240 27 -327 15z m198 -104 c44 -9 95 -30 144 -60 42 -25 96
-52 119 -61 24 -9 43 -20 43 -24 0 -12 -89 -83 -140 -113 -149 -85 -352 -98
-565 -36 -83 25 -235 88 -235 99 0 11 188 112 278 148 149 60 239 72 356 47z"/>
<path d="M6718 10804 c-340 -52 -575 -233 -666 -512 -20 -62 -26 -104 -30
-214 -5 -150 6 -182 27 -73 17 94 64 219 118 311 57 99 200 242 299 300 217
128 458 181 779 172 99 -3 170 -2 158 3 -77 28 -531 38 -685 13z"/>
<path d="M6070 9038 c0 -278 93 -590 218 -738 26 -30 46 -58 45 -62 -2 -4 1
-8 6 -8 4 0 38 -20 74 -44 169 -113 352 -131 609 -60 58 16 150 31 244 39 144
13 390 52 381 62 -3 2 -51 -5 -108 -16 -57 -11 -196 -27 -309 -37 -174 -14
-219 -15 -294 -4 -344 48 -585 215 -729 506 -63 126 -116 301 -117 381 0 17
-4 35 -10 38 -6 4 -10 -17 -10 -57z"/>
<path d="M12071 12640 c-56 -365 -305 -1044 -571 -1555 -66 -126 -190 -359
-208 -390 -63 -108 -139 -236 -182 -302 l-50 -78 767 -6 c423 -4 1255 -7 1851
-8 l1083 -1 -29 30 c-31 30 -90 113 -132 185 -28 47 -58 80 -73 80 -6 0 -12 7
-14 15 -4 13 -3 13 6 0 7 -10 11 -11 11 -3 0 7 -9 17 -20 23 -11 6 -20 17 -20
25 0 8 -5 15 -11 15 -5 0 -8 4 -5 9 8 13 -34 62 -46 55 -7 -4 -8 -2 -4 4 12
20 -4 57 -34 77 -16 11 -39 37 -51 60 -31 54 -99 126 -112 118 -6 -3 -7 -1 -3
5 4 6 -4 23 -16 38 -58 70 -104 114 -117 114 -8 0 -11 3 -8 7 8 8 -52 53 -71
53 -7 0 -10 5 -7 10 3 6 0 10 -8 10 -15 0 -42 29 -100 109 -18 24 -39 45 -47
46 -53 8 -290 224 -555 506 -28 30 -74 72 -103 94 -29 21 -52 43 -52 48 0 4
-4 5 -10 2 -5 -3 -10 -2 -10 2 0 5 -26 24 -57 43 -32 19 -60 37 -63 40 -3 3
-21 13 -40 22 -75 38 -162 96 -211 141 -10 9 -19 14 -19 10 0 -3 -8 1 -17 9
-10 9 -61 44 -113 79 -52 35 -97 65 -100 68 -6 7 -20 15 -136 76 -164 88 -284
172 -267 189 4 3 2 6 -4 6 -5 0 -15 -36 -22 -80z"/>
<path d="M10782 9838 l3 -223 213 -3 212 -2 0 -565 0 -565 258 2 257 3 0 563
0 562 213 0 212 0 0 -565 0 -565 260 0 260 0 0 275 0 275 215 0 215 0 0 -275
0 -275 260 0 260 0 0 790 0 790 -260 0 -260 0 0 -295 0 -295 -215 0 -215 0 0
295 0 295 -945 0 -945 0 2 -222z m1293 -3 l0 -145 -212 0 -213 0 0 -565 0
-565 -180 0 -180 0 0 565 0 565 -215 0 -215 0 0 145 0 145 608 0 607 0 0 -145z
m515 -150 l0 -295 295 0 295 0 0 295 0 295 180 0 180 0 0 -710 0 -710 -180 0
-180 0 0 275 0 275 -295 0 -295 0 0 -275 0 -275 -180 0 -180 0 0 710 0 710
180 0 180 0 0 -295z"/>
<path d="M13750 9270 l0 -790 645 0 645 0 0 220 0 220 -385 0 -385 0 0 65 0
65 335 0 334 0 3 213 c2 116 2 215 0 220 -2 4 -154 7 -338 7 l-334 0 0 65 0
65 375 0 375 0 0 220 0 220 -635 0 -635 0 0 -790z m1190 570 l0 -140 -375 0
-375 0 0 -145 0 -145 338 0 337 0 0 -140 0 -140 -337 0 -338 0 0 -145 0 -145
385 0 385 0 0 -140 0 -140 -565 0 -565 0 0 710 0 710 555 0 555 0 0 -140z"/>
<path d="M10395 9364 c-204 -243 -187 -218 -174 -251 31 -81 27 -189 -11 -263
-45 -87 -153 -181 -290 -250 -36 -18 -76 -41 -89 -51 -23 -19 -12 -19 553 -19
l576 0 0 420 0 420 -210 0 -209 0 -3 80 -3 80 -140 -166z"/>
<path d="M15218 9372 l-28 -3 0 -99 0 -99 48 -3 47 -3 0 -322 0 -321 80 -7
c44 -3 101 -8 128 -11 39 -5 47 -3 47 11 0 9 -4 13 -10 10 -5 -3 -12 7 -16 22
-6 28 -53 183 -78 258 -39 116 -57 186 -50 196 4 7 3 9 -4 5 -12 -7 -26 29
-17 44 3 5 1 10 -5 10 -7 0 -9 7 -6 16 3 8 2 12 -3 9 -11 -6 -25 31 -17 44 9
14 -5 42 -16 35 -6 -4 -7 2 -3 16 5 15 4 20 -4 16 -7 -5 -9 -1 -5 8 3 9 1 16
-5 16 -6 0 -8 7 -4 17 4 11 3 14 -5 9 -7 -4 -10 -2 -7 6 3 8 -5 38 -17 68 -21
50 -26 55 -50 52z"/>
<path d="M9636 8283 c-3 -4 -6 -786 -6 -1740 l0 -1733 510 0 510 0 0 695 0
695 50 0 50 0 0 -695 0 -695 1028 0 1028 0 22 268 c13 147 25 282 28 300 l5
32 79 -1 79 -1 5 -32 c3 -17 12 -130 21 -251 8 -121 18 -241 21 -267 l6 -48
1019 0 1019 0 0 745 c0 809 -4 757 54 735 48 -18 49 -33 53 -782 l4 -698 480
0 479 0 0 508 c-1 653 -11 904 -40 990 -35 102 -112 204 -198 264 l-44 30 44
25 c145 82 207 225 229 527 16 229 -8 476 -63 641 -49 149 -181 308 -313 377
-89 46 -155 65 -291 83 -142 19 -754 37 -1121 33 l-288 -3 -5 -1644 c-5 -1632
-5 -1644 -23 -1520 -17 115 -84 571 -192 1294 -24 165 -76 514 -115 775 -39
261 -91 612 -116 780 -26 174 -51 308 -57 312 -13 9 -1362 6 -1370 -2 -3 -3
-48 -331 -101 -730 -52 -399 -151 -1141 -218 -1649 l-123 -923 -3 1656 -2
1657 -508 -3 -507 -3 -3 -592 -2 -593 -50 0 -50 0 -2 593 -3 592 -501 2 c-276
1 -505 -1 -508 -4z m932 -670 l2 -593 130 0 130 0 0 595 0 595 430 0 430 0 0
-1660 0 -1660 -430 0 -430 0 0 695 0 695 -130 0 -130 0 0 -695 0 -695 -430 0
-430 0 0 1660 0 1660 428 -2 427 -3 3 -592z m2966 555 c6 -36 208 -1393 346
-2328 22 -146 62 -416 90 -600 27 -184 50 -338 50 -342 0 -5 -198 -8 -439 -8
l-439 0 -7 98 c-4 53 -15 187 -24 297 l-16 200 -155 0 -155 0 -25 -295 -25
-295 -446 -3 -445 -2 12 92 c29 226 88 664 119 898 31 226 268 2018 297 2243
l12 87 622 0 621 0 7 -42z m1586 32 c430 -16 549 -37 677 -123 113 -75 189
-174 235 -307 52 -151 75 -391 59 -612 -23 -298 -69 -401 -211 -473 -55 -28
-157 -55 -207 -55 -52 0 -39 -13 39 -38 115 -37 179 -73 238 -132 68 -68 115
-155 130 -240 8 -42 14 -289 17 -697 l6 -633 -401 0 -401 0 -3 658 c-4 566 -6
665 -20 712 -25 84 -72 114 -193 122 l-50 3 -3 -747 -2 -748 -430 0 -430 0 0
1660 0 1660 348 0 c191 0 462 -5 602 -10z"/>
<path d="M12917 7308 c-91 -702 -149 -1213 -140 -1230 2 -5 69 -8 149 -8 130
0 144 2 144 18 0 9 -11 123 -25 252 -31 293 -95 1004 -95 1059 0 83 -16 37
-33 -91z m38 -870 c14 -136 25 -256 25 -267 0 -19 -6 -21 -60 -21 -41 0 -60 4
-60 13 0 10 56 519 61 552 3 18 9 -28 34 -277z"/>
<path d="M15030 7270 l0 -373 71 6 c84 7 137 31 161 73 27 47 41 179 36 358
-3 142 -6 166 -26 208 -29 58 -80 86 -176 95 l-66 6 0 -373z m168 242 c32 -50
27 -471 -6 -504 -5 -5 -26 -13 -46 -18 l-36 -8 0 282 c0 156 3 285 6 289 11
11 65 -16 82 -41z"/>
<path d="M16356 8283 c-3 -4 -6 -786 -6 -1740 l0 -1733 510 0 510 0 1 418 c0
258 4 409 9 397 8 -17 200 -795 200 -810 0 -3 239 -5 531 -5 500 0 530 1 525
18 -13 41 -237 792 -408 1367 -44 149 -95 321 -114 384 -19 62 -34 120 -34
128 0 8 87 279 194 601 290 875 316 955 316 969 0 10 -99 12 -480 12 -442 0
-480 -1 -489 -17 -5 -9 -50 -156 -101 -327 -50 -170 -104 -348 -118 -395 l-27
-85 -3 413 -2 413 -504 -1 c-277 -1 -507 -4 -510 -7z m934 -708 c0 -349 3
-635 8 -635 4 0 20 44 35 98 15 53 90 306 167 562 76 256 148 498 160 538 l21
72 398 0 c219 0 400 -2 402 -5 5 -4 -30 -112 -315 -973 l-174 -524 138 -461
c295 -989 400 -1342 400 -1349 0 -5 -199 -8 -443 -8 l-443 0 -38 158 c-21 86
-92 375 -157 642 -66 267 -124 508 -131 535 -6 28 -15 54 -20 59 -4 6 -8 -306
-8 -692 l0 -702 -430 0 -430 0 0 1653 c0 910 3 1657 7 1660 3 4 197 7 430 7
l423 0 0 -635z"/>
<path d="M2487 6962 c5 -400 13 -623 27 -725 9 -59 18 -183 21 -275 7 -227 12
-280 29 -317 27 -55 47 -147 52 -234 3 -47 8 -89 11 -94 7 -11 12 -32 58 -240
20 -87 40 -166 45 -175 5 -9 15 -32 22 -49 7 -18 16 -33 19 -33 4 0 10 -24 13
-52 4 -29 11 -57 15 -63 4 -5 22 -53 40 -105 18 -52 37 -104 42 -115 5 -11 23
-58 39 -105 16 -47 29 -81 29 -77 1 12 86 -115 114 -170 14 -26 37 -79 52
-118 53 -134 176 -358 227 -412 33 -35 66 -89 103 -168 30 -64 55 -120 55
-125 0 -6 5 -10 12 -10 6 0 9 -3 5 -6 -3 -4 17 -49 44 -102 65 -121 72 -134
85 -149 6 -6 29 -41 50 -77 21 -36 42 -66 46 -66 4 0 8 -5 8 -11 0 -6 11 -25
25 -43 14 -18 22 -36 17 -41 -4 -5 -2 -5 4 -2 6 3 17 -6 25 -21 8 -15 16 -29
19 -32 4 -3 22 -27 41 -55 43 -61 67 -92 99 -124 14 -13 18 -20 10 -16 -8 5 0
-8 18 -28 17 -21 32 -41 32 -45 0 -4 27 -35 60 -70 32 -34 56 -62 54 -62 -3 0
6 -11 20 -23 14 -13 23 -27 19 -30 -3 -4 1 -7 10 -7 8 0 19 -9 22 -20 4 -12
14 -19 23 -18 9 2 16 -2 15 -9 -2 -6 8 -21 22 -31 13 -11 22 -22 18 -25 -3 -4
2 -9 11 -13 9 -3 16 -10 16 -15 0 -12 43 -55 52 -52 5 2 7 -3 5 -10 -1 -6 4
-11 10 -10 7 2 12 -1 10 -5 -1 -5 13 -25 31 -46 17 -20 32 -34 32 -31 0 4 39
-27 74 -61 6 -5 28 -22 48 -35 21 -14 35 -29 30 -34 -4 -5 -2 -5 4 -2 5 3 45
-23 87 -59 42 -35 77 -61 77 -58 0 3 12 -9 28 -28 33 -40 53 -57 156 -131 103
-73 80 -58 303 -195 164 -99 237 -153 372 -272 26 -23 100 -70 110 -70 5 0 11
-3 13 -8 5 -11 134 -83 238 -132 102 -48 264 -130 451 -229 64 -33 124 -61
132 -61 8 0 17 -4 19 -9 5 -14 146 -61 165 -55 14 5 15 4 4 -4 -10 -7 -4 -13
25 -23 22 -7 46 -13 54 -14 15 -2 22 -5 89 -31 18 -8 47 -14 63 -14 19 0 27
-4 22 -12 -4 -6 -3 -8 4 -5 5 4 61 -5 124 -19 62 -14 123 -25 136 -25 12 0 22
-4 22 -9 0 -6 9 -10 20 -10 41 0 196 -42 261 -70 81 -36 142 -49 269 -57 52
-3 109 -11 125 -18 17 -6 68 -17 115 -24 47 -7 116 -17 153 -22 38 -5 83 -17
100 -27 29 -16 90 -17 707 -20 640 -2 678 -1 750 17 41 11 125 27 185 36 61 8
124 20 140 25 17 5 73 14 125 20 52 5 117 17 144 25 26 8 77 18 113 21 44 5
86 18 129 40 35 18 90 38 121 44 32 6 103 30 158 52 108 45 161 51 299 38 39
-4 72 -6 73 -5 4 3 -34 20 -152 71 -112 47 -353 165 -435 212 -391 223 -685
447 -976 743 -265 269 -473 546 -658 877 -57 101 -58 103 -89 97 -147 -25
-251 -34 -259 -23 -4 7 -26 69 -48 138 -22 69 -43 130 -48 136 -4 7 -100 13
-282 17 -845 20 -1791 178 -2530 424 -769 256 -1426 627 -1882 1062 l-78 74
-55 -118 c-88 -187 -151 -257 -262 -290 -65 -20 -102 -19 -167 5 -151 57 -224
199 -260 511 -17 142 -36 503 -36 679 0 105 0 106 -54 230 -191 445 -308 910
-361 1429 -17 159 -30 193 -120 311 -73 95 -70 100 -68 -98z m1660 -4577 c0
-8 -4 -12 -9 -9 -5 3 -6 10 -3 15 9 13 12 11 12 -6z"/>
<path d="M13030 4560 c0 -3 47 -39 105 -80 57 -41 104 -78 105 -81 0 -3 -114
-36 -252 -74 -560 -151 -935 -303 -1228 -496 -99 -66 -261 -207 -260 -228 1
-18 72 -101 82 -95 7 4 8 3 4 -5 -5 -7 34 -67 98 -151 l105 -139 -92 -47
c-202 -104 -377 -208 -377 -225 0 -24 184 -303 320 -484 144 -193 241 -293
372 -383 18 -13 75 -53 126 -89 l92 -65 -34 -27 c-20 -14 -35 -29 -36 -33 0
-5 17 -8 38 -8 118 0 251 -48 299 -108 76 -94 83 -155 39 -317 -11 -42 -11
-59 1 -110 14 -60 67 -185 78 -185 4 0 16 5 28 10 22 10 22 10 0 -6 -13 -9
-23 -21 -23 -26 0 -5 13 1 30 13 16 12 27 26 24 30 -3 5 2 6 10 3 11 -4 19 2
26 20 5 14 14 26 19 26 17 0 79 46 152 112 38 35 91 75 119 90 57 30 112 67
122 83 4 5 8 7 8 3 0 -3 37 31 83 75 80 79 153 137 172 137 5 0 34 23 66 50
32 28 60 50 63 50 3 0 18 12 35 27 44 42 94 78 103 75 4 -1 7 1 7 5 -3 21 3
32 22 38 11 4 19 9 16 11 -2 3 14 24 37 47 23 23 62 67 86 97 25 30 48 57 53
58 4 2 5 7 2 11 -4 8 68 81 79 81 27 0 232 221 230 246 -1 8 2 12 6 9 12 -7
70 62 90 107 9 22 34 54 54 73 21 19 35 39 31 44 -3 6 0 9 7 6 15 -6 52 48 40
59 -4 4 -2 6 5 4 10 -3 57 52 88 101 6 9 14 19 19 22 5 4 5 12 2 18 -4 6 -2
10 4 9 6 -2 23 15 39 37 15 22 33 39 40 37 6 -1 10 1 10 5 -3 20 2 34 10 29 5
-3 8 2 7 12 0 9 5 16 12 14 8 -1 11 2 8 7 -4 5 5 27 19 48 27 38 45 59 30 34
-5 -10 -4 -12 3 -7 8 5 9 13 3 25 -7 13 -6 18 4 18 8 0 11 -5 8 -10 -3 -6 -1
-7 5 -3 6 4 9 13 6 21 -3 8 5 29 19 47 13 18 39 62 58 98 18 36 36 67 40 70 3
3 19 30 35 60 16 30 35 60 42 68 6 7 12 22 12 32 0 10 4 20 9 22 4 2 26 40 49
86 22 45 37 80 32 77 -5 -3 2 13 15 37 13 23 22 45 19 50 -3 4 -1 8 5 8 5 0
15 16 21 35 7 22 16 33 23 28 7 -3 9 -3 5 2 -4 4 -4 13 1 19 5 6 14 28 20 49
7 20 17 37 21 37 5 0 6 7 3 17 -4 11 -3 14 5 9 7 -4 12 -1 12 8 0 8 9 30 20
49 12 19 23 46 26 58 9 40 10 42 41 107 17 34 29 62 26 62 -3 0 1 10 9 23 8
12 27 57 42 100 15 42 30 77 33 77 3 0 2 -8 -2 -17 -5 -15 -4 -16 6 -5 9 8 10
15 3 22 -10 10 -2354 20 -2354 10z"/>
</g>
</svg>
